<svg xmlns="http://www.w3.org/2000/svg" fill="none" viewBox="0 0 25 24" id="linkedin"><rect width="24" height="24" x=".463" fill="url(#paint0_linear_302_4960)" rx="8"></rect><path fill="#5fe4d4" fill-rule="evenodd" d="M5.81818 7.63636C6.82233 7.63636 7.63636 6.82233 7.63636 5.81818C7.63636 4.81403 6.82233 4 5.81818 4C4.81403 4 4 4.81403 4 5.81818C4 6.82233 4.81403 7.63636 5.81818 7.63636ZM7.63636 20V9.09091H4V20H7.63636ZM9.09091 9.09091H12.3636V10.5063C12.8847 9.8217 13.9969 9.09091 16 9.09091C19.1493 9.09091 20 12.233 20 14.1818V20H16.3636V14.1818C16.3636 13.4545 16 12 14.5455 12C13.5126 12 12.7853 12.7335 12.3636 13.4191V20H9.09091V9.09091Z" clip-rule="evenodd" class="colorffffff svgShape"></path><defs><linearGradient id="paint0_linear_302_4960" x1=".463" x2="24.463" y1="12" y2="12" gradientUnits="userSpaceOnUse"><stop stop-color="#8526fe" class="stopColored6d6b svgShape"></stop><stop offset="1" stop-color="#d8a353" class="stopColorf0b076 svgShape"></stop></linearGradient></defs></svg>