<svg xmlns="http://www.w3.org/2000/svg" fill="none" viewBox="0 0 25 24" id="medium"><rect width="24" height="24" x=".777" fill="url(#paint0_linear_302_4490)" rx="8"></rect><path fill="#5fe4d4" fill-rule="evenodd" d="M5 6C5 4.89543 5.89543 4 7 4H19C20.1046 4 21 4.89543 21 6V18C21 19.1046 20.1046 20 19 20H7C5.89543 20 5 19.1046 5 18V6ZM15.5612 8H18.0909L17 9.09091V14.9091L18.0909 16H14.0909L15.1818 14.9091V10.3437L13.4777 13.7042L12.2727 16L9.72727 11.3333V14.5455L11.1818 16H7.54545L9 14.5455V10L7.90909 8H10.0909L13.0426 12.9541L15.5274 8.05403L15.5455 8H15.5548L15.5561 7.99743L15.5612 8Z" clip-rule="evenodd" class="colorffffff svgShape"></path><defs><linearGradient id="paint0_linear_302_4490" x1=".777" x2="24.777" y1="12" y2="12" gradientUnits="userSpaceOnUse"><stop stop-color="#8526fe" class="stopColored6d6b svgShape"></stop><stop offset="1" stop-color="#d8a353" class="stopColorf0b076 svgShape"></stop></linearGradient></defs></svg>