<svg xmlns="http://www.w3.org/2000/svg" data-name="Layer 1" viewBox="0 0 512 512" id="Resume"><rect width="360.73" height="497" x="75.64" y="7.5" fill="#8526fe" rx="30" class="colorfff8cc svgShape"></rect><path fill="#5fe4d4" d="M233.52 223.77h-91.38a21.5 21.5 0 0 1-21.5-21.51v-5.63a39.88 39.88 0 0 1 32.43-39.19l34.76-6.63 34.76 6.63A39.88 39.88 0 0 1 255 196.63v5.63a21.5 21.5 0 0 1-21.48 21.51Z" class="colorff6666 svgShape"></path><path fill="#ffb84e" d="m222.59 157.44-34.76-6.63-9.16 1.75 25.61 4.88a39.88 39.88 0 0 1 32.43 39.19v5.63a21.51 21.51 0 0 1-21.5 21.51h18.31A21.5 21.5 0 0 0 255 202.26v-5.63a39.88 39.88 0 0 0-32.41-39.19Z" class="colorff4e4e svgShape"></path><path fill="#ffce85" d="M173.11 144.66h29.44v14.72a14.72 14.72 0 0 1-14.72 14.72 14.72 14.72 0 0 1-14.72-14.72v-14.72Z" class="colorffcd85 svgShape"></path><path fill="#ffce85" d="M173.11 144.66h29.44v14.72a14.72 14.72 0 0 1-14.72 14.72 14.72 14.72 0 0 1-14.72-14.72v-14.72Z" class="colorffcd85 svgShape"></path><path fill="#d8a353" d="M190.77 144.66v14.71a14.72 14.72 0 0 1-8.83 13.49 14.61 14.61 0 0 0 5.89 1.23 14.72 14.72 0 0 0 14.72-14.72v-14.71Z" class="colorffc166 svgShape"></path><path fill="#ad59d4" d="m211.86 80-59.23 11.16V63.67c0-6.17 5-12.77 11.17-12.77H223v17.93A11.17 11.17 0 0 1 211.86 80Z" class="color595f74 svgShape"></path><path fill="#594a60" d="M208 50.9v17.93A11.17 11.17 0 0 1 196.86 80l-44.23 8.33v2.83L211.86 80A11.17 11.17 0 0 0 223 68.83V50.9Z" class="color4a4f60 svgShape"></path><path fill="#ffce85" d="M165.43 80h44.8A12.8 12.8 0 0 1 223 92.79v22.4a35.2 35.2 0 0 1-35.2 35.2 35.2 35.2 0 0 1-35.2-35.2v-22.4A12.8 12.8 0 0 1 165.43 80Z" class="colorffcd85 svgShape"></path><path fill="#d8a353" d="M210.23 80h-15A12.8 12.8 0 0 1 208 92.79v22.4a35.21 35.21 0 0 1-27.7 34.39 35.68 35.68 0 0 0 7.5.81 35.2 35.2 0 0 0 35.2-35.2v-22.4A12.8 12.8 0 0 0 210.23 80Z" class="colorffc166 svgShape"></path><path fill="#ffcc80" d="M391.36 60H291.7a7.5 7.5 0 0 1 0-15h99.66a7.5 7.5 0 0 1 0 15zm0 171.27H291.7a7.5 7.5 0 0 1 0-15h99.66a7.5 7.5 0 0 1 0 15zm0-30H291.7a7.5 7.5 0 0 1 0-15h99.66a7.5 7.5 0 0 1 0 15zm0 77.23H167.72a7.5 7.5 0 0 1 0-15h223.64a7.5 7.5 0 0 1 0 15zm-45-188.5H291.7a7.5 7.5 0 0 1 0-15h54.66a7.5 7.5 0 0 1 0 15z" class="colorffed80 svgShape"></path><circle cx="128.14" cy="271" r="7.5" fill="#ffcc80" class="colorffed80 svgShape"></circle><path fill="#ffcc80" d="M391.36 323.5H167.72a7.5 7.5 0 0 1 0-15h223.64a7.5 7.5 0 0 1 0 15Z" class="colorffed80 svgShape"></path><circle cx="128.14" cy="316" r="7.5" fill="#ffcc80" class="colorffed80 svgShape"></circle><path fill="#ffcc80" d="M391.36 368.5H167.72a7.5 7.5 0 0 1 0-15h223.64a7.5 7.5 0 0 1 0 15Z" class="colorffed80 svgShape"></path><circle cx="128.14" cy="361" r="7.5" fill="#ffcc80" class="colorffed80 svgShape"></circle><path fill="#ffcc80" d="M391.36 413.5H167.72a7.5 7.5 0 0 1 0-15h223.64a7.5 7.5 0 0 1 0 15Z" class="colorffed80 svgShape"></path><circle cx="128.14" cy="406" r="7.5" fill="#ffcc80" class="colorffed80 svgShape"></circle><path fill="#ffcc80" d="M391.36 458.5H167.72a7.5 7.5 0 0 1 0-15h223.64a7.5 7.5 0 0 1 0 15Z" class="colorffed80 svgShape"></path><circle cx="128.14" cy="451" r="7.5" fill="#ffcc80" class="colorffed80 svgShape"></circle></svg>